<svg width="64" height="64" viewBox="0 0 64 64" fill="none" xmlns="http://www.w3.org/2000/svg">
<circle cx="32" cy="32" r="32" fill="white"/>
<path d="M36.7999 26.6667L26.6666 26.6667C26.2888 26.6667 25.9724 26.5391 25.7173 26.284C25.4613 26.028 25.3333 25.7111 25.3333 25.3333C25.3333 24.9556 25.4613 24.6387 25.7173 24.3827C25.9724 24.1276 26.2888 24 26.6666 24L39.9999 24C40.3777 24 40.6946 24.1276 40.9506 24.3827C41.2057 24.6387 41.3333 24.9556 41.3333 25.3333L41.3333 38.6667C41.3333 39.0444 41.2057 39.3609 40.9506 39.616C40.6946 39.872 40.3777 40 39.9999 40C39.6221 40 39.3053 39.872 39.0493 39.616C38.7941 39.3609 38.6666 39.0444 38.6666 38.6667L38.6666 28.5333L26.7999 40.4C26.5555 40.6444 26.2444 40.7667 25.8666 40.7667C25.4888 40.7667 25.1777 40.6444 24.9333 40.4C24.6888 40.1556 24.5666 39.8444 24.5666 39.4667C24.5666 39.0889 24.6888 38.7778 24.9333 38.5333L36.7999 26.6667Z" fill="#212121"/>
</svg>
