<svg width="28" height="28" viewBox="0 0 28 28" fill="none" xmlns="http://www.w3.org/2000/svg">
<path fill-rule="evenodd" clip-rule="evenodd" d="M20.3493 6.47437C20.0336 6.47437 19.7589 6.59123 19.5252 6.82497L14 12.3501L8.47489 6.82499C8.24115 6.59125 7.96644 6.47438 7.65075 6.47438C7.33397 6.47438 7.05871 6.59125 6.82497 6.82499C6.59123 7.05872 6.47436 7.33398 6.47436 7.65077C6.47436 7.96645 6.59123 8.24116 6.82497 8.4749L12.3501 14L6.32583 20.0243C6.09209 20.258 5.97522 20.5327 5.97522 20.8484C5.97522 21.1652 6.09209 21.4405 6.32583 21.6742C6.55956 21.908 6.83483 22.0248 7.15161 22.0248C7.46729 22.0248 7.74201 21.908 7.97574 21.6742L14 15.6499L20.0243 21.6742C20.258 21.908 20.5327 22.0248 20.8484 22.0248C21.1652 22.0248 21.4405 21.908 21.6742 21.6742C21.908 21.4405 22.0248 21.1652 22.0248 20.8484C22.0248 20.5328 21.908 20.258 21.6742 20.0243L15.6499 14L21.1751 8.47489C21.4088 8.24115 21.5257 7.96644 21.5257 7.65075C21.5257 7.33397 21.4088 7.05871 21.1751 6.82497C20.9413 6.59123 20.6661 6.47437 20.3493 6.47437Z" fill="white"/>
</svg>
