<svg width="52" height="52" viewBox="0 0 52 52" fill="none" xmlns="http://www.w3.org/2000/svg">
<rect width="52" height="52" rx="26" fill="#0A66C2"/>
<path d="M20.0966 17.8333C20.0963 18.4521 19.8502 19.0455 19.4124 19.4829C18.9746 19.9202 18.3809 20.1658 17.7621 20.1654C17.1433 20.1651 16.5499 19.919 16.1125 19.4812C15.6752 19.0434 15.4296 18.4498 15.4299 17.8309C15.4302 17.2121 15.6764 16.6187 16.1142 16.1814C16.552 15.744 17.1456 15.4985 17.7644 15.4988C18.3833 15.4991 18.9766 15.7452 19.414 16.183C19.8514 16.6208 20.0969 17.2144 20.0966 17.8333ZM20.1666 21.8933H15.4999V36.4999H20.1666V21.8933ZM27.5399 21.8933H22.8966V36.4999H27.4933V28.8349C27.4933 24.5649 33.0583 24.1683 33.0583 28.8349V36.4999H37.6666V27.2483C37.6666 20.0499 29.4299 20.3183 27.4933 23.8533L27.5399 21.8933Z" fill="white"/>
</svg>
